<svg xmlns="http://www.w3.org/2000/svg" id="f50a2be6-ea49-4102-b303-5ac9b9f57464" data-name="Layer 1" width="74.6451" height="66" viewBox="0 0 74.6451 66"><path id="b42c4aff-770f-41ef-8270-4aea8953a28f" data-name="Fill-1-Copy-12" d="M53.3653,19.386c-9.8693,32.2855,6.1235,31.8329-7.1389,41.2306A29.1943,29.1943,0,0,1,5.3387,53.4179a29.7533,29.7533,0,0,1,7.1385-41.23C25.74,2.79,63.2345-12.8994,53.3653,19.386" style="fill-rule:evenodd;opacity:0.05"></path><path d="M69.7716,11.4357a15.95,15.95,0,0,0-11.7133-4.693,16.3333,16.3333,0,0,0-10.36,28.7287,1.0567,1.0567,0,0,1,.369.6043c.5472,2.96,1.83,9.8922,5.9018,9.8922h8.7068c4.0738,0,5.4016-7.19,5.9035-9.8965a1.0226,1.0226,0,0,1,.3639-.5931,16.3386,16.3386,0,0,0,.8285-24.0426ZM67.5241,33.8245a3.1987,3.1987,0,0,0-1.0855,1.8495c-1.3044,7.0609-2.9179,8.1148-3.7629,8.1148H53.9689c-.8441,0-2.4568-1.0539-3.7628-8.1148a3.2243,3.2243,0,0,0-1.089-1.8539A14.21,14.21,0,0,1,58.0922,8.9218c.0781-.0017.1554-.0017.2336-.0017a14.1554,14.1554,0,0,1,9.1983,24.9044Z" style="fill-rule:evenodd"></path><path d="M63.9589,23.5961a.85.85,0,0,0-1.0713-.5548,10.9049,10.9049,0,0,0-1.5851.6945l-.0464.0251a3.186,3.186,0,0,1-1.3443.4616.8592.8592,0,0,0-.1017-.9058.8491.8491,0,0,0-1.198-.1255l-.1136.0933-.111-.091a.8492.8492,0,0,0-1.1977.1253.8578.8578,0,0,0-.1023.9028,3.1489,3.1489,0,0,1-1.3449-.4624l-.0462-.0251a11.0241,11.0241,0,0,0-1.5843-.6934.8459.8459,0,0,0-.9574,1.287.7728.7728,0,0,0-.0545.8376,23.0327,23.0327,0,0,1,2.743,6.9624,40.9852,40.9852,0,0,1,.5646,8.088.7962.7962,0,0,0,1.5922,0,42.4528,42.4528,0,0,0-.59-8.3948,23.3987,23.3987,0,0,0-2.4354-6.5334c1.24.6258,2.2805,1.1154,3.5247.19,1.2454.9269,2.2875.4342,3.5277-.1921A23.3937,23.3937,0,0,0,59.59,31.8215,42.4461,42.4461,0,0,0,59,40.2157a.7963.7963,0,0,0,1.5925,0,40.9845,40.9845,0,0,1,.5633-8.0875A23.0406,23.0406,0,0,1,63.9,25.1663a.7722.7722,0,0,0-.0547-.8388A.8456.8456,0,0,0,63.9589,23.5961Z" style="fill-rule:evenodd"></path><path d="M62,48H54a1,1,0,0,0,0,2h8a1,1,0,0,0,0-2Z" style="fill-rule:evenodd"></path><path d="M62,52H54a1,1,0,0,0,0,2h8a1,1,0,0,0,0-2Z" style="fill-rule:evenodd"></path><path d="M60.3335,56H55.6674a1.012,1.012,0,1,0,0,2h4.6661a1.0119,1.0119,0,1,0,0-2Z" style="fill-rule:evenodd"></path></svg>