<svg xmlns="http://www.w3.org/2000/svg" id="bd174aeb-b623-40e5-a75c-6aa845ce06e9" data-name="Layer 1" width="74.7078" height="66" viewBox="0 0 74.7078 66"><path id="b6f1f094-5902-49ca-a766-09584eb9daa6" data-name="Fill-1-Copy-5" d="M53.3653,19.386c-9.8693,32.2855,6.1235,31.8329-7.1389,41.2306A29.1943,29.1943,0,0,1,5.3387,53.4179a29.7533,29.7533,0,0,1,7.1385-41.23C25.74,2.79,63.2345-12.8994,53.3653,19.386" style="fill-rule:evenodd;opacity:0.05"></path><path d="M70.6063,52.798a4.0908,4.0908,0,0,0-3.3287,1.7228l-8.83-4.4155a.9765.9765,0,0,0-.5986-.0752,3.5841,3.5841,0,0,0,.0028-2.0507.9848.9848,0,0,0,.15.0206,1.0107,1.0107,0,0,0,.4468-.1053l9.6412-4.8216a4.061,4.061,0,0,0,2.5169.8869,4.1045,4.1045,0,1,0-3.7731-2.4958l-9.28,4.641a.976.976,0,0,0-.4212.4363,4,4,0,1,0,0,4.9171.9769.9769,0,0,0,.4211.4359l9.0026,4.5016a4.0466,4.0466,0,0,0-.0507.5027,4.1015,4.1015,0,1,0,4.1015-4.1008Zm0-14.99a2.05,2.05,0,1,1-2.05,2.05A2.053,2.053,0,0,1,70.6063,37.8081ZM54,51A2,2,0,1,1,56,49,2.0025,2.0025,0,0,1,54,51Zm16.6067,7.9492a2.0525,2.0525,0,0,1-2.05-2.05c0-.0278.0071-.0536.0082-.0811A.975.975,0,0,0,68.9506,55.7a2.0478,2.0478,0,1,1,1.6557,3.2492Z" style="fill-rule:evenodd"></path><path d="M50.6746,54.8864H32.1465a3.1252,3.1252,0,0,1-3.0877-3.1557V21.3828H70.2321V32.8006a1.029,1.029,0,1,0,2.0576,0V20.132l0-.0022,0-.0022V15.973a5.209,5.209,0,0,0-5.1463-5.2582H32.1465A5.2091,5.2091,0,0,0,27,15.973v4.1543l0,.0025,0,.0026V51.7307a5.2093,5.2093,0,0,0,5.1463,5.259H50.6746a1.0519,1.0519,0,0,0,0-2.1033ZM32.1465,12.8181H67.1434a3.1258,3.1258,0,0,1,3.0887,3.1549v2.9038H29.0588V15.973A3.125,3.125,0,0,1,32.1465,12.8181Z" style="fill-rule:evenodd"></path><circle cx="34" cy="16" r="1"></circle><path d="M37,17a1,1,0,1,0-1-1A1.0006,1.0006,0,0,0,37,17Z" style="fill-rule:evenodd"></path><circle cx="40" cy="16" r="1"></circle></svg>