<svg xmlns="http://www.w3.org/2000/svg" id="b9e09142-ccd4-45d3-995b-f369fbbeb65b" data-name="Layer 1" width="74.7878" height="66" viewBox="0 0 74.7878 66"><path id="a55a3f11-b28d-4889-a172-255b9c5ac4e0" data-name="Fill-1-Copy-11" d="M53.3653,19.386c-9.8693,32.2855,6.1235,31.8329-7.1389,41.2306A29.1943,29.1943,0,0,1,5.3387,53.4179a29.7533,29.7533,0,0,1,7.1385-41.23C25.74,2.79,63.2345-12.8994,53.3653,19.386" style="fill-rule:evenodd;opacity:0.05"></path><path d="M69.55,11.7252H29.7381a5.2553,5.2553,0,0,0-5.2388,5.2581V52.7419A5.2553,5.2553,0,0,0,29.7381,58H69.55a5.2546,5.2546,0,0,0,5.2379-5.2581V16.9833A5.2545,5.2545,0,0,0,69.55,11.7252ZM29.7381,13.8284H69.55a3.1532,3.1532,0,0,1,3.1428,3.1549v2.9056H26.5953V16.9833A3.1532,3.1532,0,0,1,29.7381,13.8284ZM69.55,55.8967H29.7381a3.1526,3.1526,0,0,1-3.1428-3.1548V22.3949H72.6927v30.347A3.1526,3.1526,0,0,1,69.55,55.8967Z" style="fill-rule:evenodd"></path><circle cx="30.5" cy="17" r="1"></circle><circle cx="33.5" cy="17" r="1"></circle><path d="M36.5,18a1,1,0,1,0-1-1A1,1,0,0,0,36.5,18Z" style="fill-rule:evenodd"></path><path d="M69.45,25H29.55a1.0429,1.0429,0,0,0-1.05,1.0356V52.9644A1.0429,1.0429,0,0,0,29.55,54h39.9a1.0423,1.0423,0,0,0,1.05-1.0356V26.0356A1.0423,1.0423,0,0,0,69.45,25Zm-1.0507,2.0712v19.5l-7.7023-6.9286a1.0329,1.0329,0,0,0-1.2174-.1289l-6.5711,3.7989L45.07,33.3964A1.0464,1.0464,0,0,0,44.3082,33a1.09,1.09,0,0,0-.8011.3087L30.6,46.372V27.0712ZM30.6,51.9279v-2.55L44.1624,35.652l7.6669,9.6993a1.0472,1.0472,0,0,0,1.3407.2578l6.696-3.8719,8.5334,7.6766v2.5141Z" style="fill-rule:evenodd"></path><path d="M60.5,37a4,4,0,1,0-4-4A4.0039,4.0039,0,0,0,60.5,37Zm0-6a2,2,0,1,1-2,2A2.0023,2.0023,0,0,1,60.5,31Z" style="fill-rule:evenodd"></path></svg>