<svg xmlns="http://www.w3.org/2000/svg" id="bffa1741-da30-45f1-9a31-c24560f1fe9f" data-name="Layer 1" width="75.2885" height="66" viewBox="0 0 75.2885 66"><path id="b7ca7db8-ac9c-47d3-af82-9e957536ee6f" data-name="Fill-1-Copy-8" d="M53.3653,19.386c-9.8693,32.2855,6.1235,31.8329-7.1389,41.2306A29.1943,29.1943,0,0,1,5.3387,53.4179a29.7533,29.7533,0,0,1,7.1385-41.23C25.74,2.79,63.2345-12.8994,53.3653,19.386" style="fill-rule:evenodd;opacity:0.05"></path><path d="M70.05,10.2964H30.2387A5.2183,5.2183,0,0,0,25,15.4813V52.8145A5.2185,5.2185,0,0,0,30.2387,58H70.05a5.2191,5.2191,0,0,0,5.2389-5.1857V15.4813A5.2189,5.2189,0,0,0,70.05,10.2964ZM30.2387,12.37H70.05a3.13,3.13,0,0,1,3.1428,3.1109v1.9013H27.0951V15.4813A3.1309,3.1309,0,0,1,30.2387,12.37ZM70.05,55.9254H30.2387a3.1309,3.1309,0,0,1-3.1436-3.1109V19.8886H73.1924V52.8145A3.13,3.13,0,0,1,70.05,55.9254Z" style="fill-rule:evenodd"></path><path d="M31,16a1,1,0,1,0-1-1A1,1,0,0,0,31,16Z" style="fill-rule:evenodd"></path><circle cx="34" cy="15" r="1"></circle><circle cx="37" cy="15" r="1"></circle><path d="M34.6642,40.94a.9966.9966,0,0,0,1.2768-.6074L37.1266,37h5.746l1.1856,3.3328A.9987.9987,0,0,0,45,41a.9679.9679,0,0,0,.336-.0593,1.0038,1.0038,0,0,0,.6056-1.2821l-5-14.0577a1.0379,1.0379,0,0,0-1.8824,0l-5,14.0577A1.0038,1.0038,0,0,0,34.6642,40.94ZM40,28.9235,42.1611,35H37.838Z" style="fill-rule:evenodd"></path><path d="M65.9376,25H51.0624a1.0018,1.0018,0,1,0,0,2H65.9376a1.0018,1.0018,0,1,0,0-2Z" style="fill-rule:evenodd"></path><path d="M65.9376,31H51.0624a1.0018,1.0018,0,1,0,0,2H65.9376a1.0018,1.0018,0,1,0,0-2Z" style="fill-rule:evenodd"></path><path d="M65.9376,37H51.0624a1.0018,1.0018,0,1,0,0,2H65.9376a1.0018,1.0018,0,1,0,0-2Z" style="fill-rule:evenodd"></path><path d="M65.9688,43H35.0312a1,1,0,1,0,0,2H65.9688a1,1,0,1,0,0-2Z" style="fill-rule:evenodd"></path><path d="M65.9688,50H35.0312a1,1,0,1,0,0,2H65.9688a1,1,0,1,0,0-2Z" style="fill-rule:evenodd"></path></svg>