<svg xmlns="http://www.w3.org/2000/svg" id="b6dcefca-0c8c-418c-b77f-efb4dc1647b0" data-name="Layer 1" width="75.3081" height="66" viewBox="0 0 75.3081 66"><path id="b44b666d-68b2-4ca8-9bee-286f74bdea55" data-name="Fill-1-Copy-9" d="M53.3653,19.386c-9.8693,32.2855,6.1235,31.8329-7.1389,41.2306A29.1943,29.1943,0,0,1,5.3387,53.4179a29.7533,29.7533,0,0,1,7.1385-41.23C25.74,2.79,63.2345-12.8994,53.3653,19.386" style="fill-rule:evenodd;opacity:0.05"></path><path d="M36.1794,46.4411a1.0435,1.0435,0,0,0,.4161-2.0025,15.7286,15.7286,0,1,1,15.0229-1.3817,1.0409,1.0409,0,0,0-.2838,1.45,1.0538,1.0538,0,0,0,1.4567.2825,17.844,17.844,0,1,0-17.028,1.5658A1.0509,1.0509,0,0,0,36.1794,46.4411Z" style="fill-rule:evenodd"></path><path d="M74.29,28.3412H64.1086a1.0177,1.0177,0,0,0-.72,1.7379l4.2843,4.2844L53.2659,49.153l-7.5827-7.7842a1.0208,1.0208,0,0,0-1.4712,0L31.7346,54.178a1.0879,1.0879,0,0,0,0,1.51,1.0217,1.0217,0,0,0,1.4711,0L44.9472,43.6321l7.5843,7.7851a1.0188,1.0188,0,0,0,1.4695,0L69.1624,35.8528,73.57,40.2606a1.0206,1.0206,0,0,0,.72.2981.9981.9981,0,0,0,.3892-.078,1.0179,1.0179,0,0,0,.6289-.94V29.3593A1.0175,1.0175,0,0,0,74.29,28.3412Zm-1.018,8.7416-6.7056-6.7055H73.272Z" style="fill-rule:evenodd"></path><path d="M43,39a1.0284,1.0284,0,0,0,1-1.0555V36.9131a4.5186,4.5186,0,0,0,4-4.1977c0-2.0089-1.311-3.3611-4-4.0707V24.2758A2.4323,2.4323,0,0,1,46.0043,26.17a1.0361,1.0361,0,0,0,1.08.9765,1.0525,1.0525,0,0,0,.9121-1.1586A4.5182,4.5182,0,0,0,44,22.084V21.0563a1.0015,1.0015,0,1,0-2,0v1.0306a4.5188,4.5188,0,0,0-4,4.1986c0,2.0072,1.3114,3.36,4,4.07V34.724a2.4342,2.4342,0,0,1-2.0043-1.8949,1.0323,1.0323,0,0,0-1.0788-.9773A1.052,1.052,0,0,0,38.004,33.01,4.52,4.52,0,0,0,42,36.916v1.0285A1.0284,1.0284,0,0,0,43,39Zm3-6.2846c0,.91-.85,1.7022-2,2.0051V30.8419C45.3506,31.2539,46,31.8578,46,32.7154Zm-6-6.43c0-.911.85-1.703,1.9995-2.0059v3.8775C40.65,27.7447,40.0005,27.1412,40.0005,26.2855Z" style="fill-rule:evenodd"></path></svg>