<svg xmlns="http://www.w3.org/2000/svg" id="b100d072-5c26-428c-aa94-fe2a7fbab69d" data-name="Layer 1" width="75" height="66" viewBox="0 0 75 66"><path id="e8462590-5a8a-492b-9bee-67fe2f65f983" data-name="Fill-1-Copy-6" d="M53.3653,19.386c-9.8693,32.2855,6.1235,31.8329-7.1389,41.2306A29.1943,29.1943,0,0,1,5.3387,53.4179a29.7533,29.7533,0,0,1,7.1385-41.23C25.74,2.79,63.2345-12.8994,53.3653,19.386" style="fill-rule:evenodd;opacity:0.05"></path><path d="M36.3831,33.079a.97.97,0,0,0-1.0894.2261L32,36.7484l-3.2929-3.4433a.9746.9746,0,0,0-1.0894-.2261A1.0466,1.0466,0,0,0,27,34.0443v20.91A1.0224,1.0224,0,0,0,28,56h8a1.0224,1.0224,0,0,0,1-1.0454v-20.91A1.0459,1.0459,0,0,0,36.3831,33.079Zm-1.3823,20.83H29V36.5682l2.2929,2.3979a.9709.9709,0,0,0,1.415,0l2.2929-2.3979Z" style="fill-rule:evenodd"></path><path d="M45.7079,24.3128a.9566.9566,0,0,0-1.415,0l-4,4.2664A1.1022,1.1022,0,0,0,40,29.3334v25.6A1.0339,1.0339,0,0,0,41,56h8a1.0339,1.0339,0,0,0,1-1.0666v-25.6a1.099,1.099,0,0,0-.2929-.7542Zm2.2929,29.554H42V29.7752l3-3.2006,3.0008,3.2006Z" style="fill-rule:evenodd"></path><path d="M57.7079,20.3013a.9814.9814,0,0,0-1.415,0l-4,4.1182A1.0435,1.0435,0,0,0,52,25.1473V53.9706A1.0139,1.0139,0,0,0,53,55h8a1.0139,1.0139,0,0,0,1-1.0294V25.1473a1.04,1.04,0,0,0-.2929-.7278Zm2.2929,32.64H54V25.5737l3-3.0888,3.0008,3.0888Z" style="fill-rule:evenodd"></path><path d="M72.7071,16.3083A.9729.9729,0,0,0,72.0008,16H70a.9758.9758,0,0,0-.7071.3083l-4,4.21A1.08,1.08,0,0,0,65,21.2628V54.9474A1.0262,1.0262,0,0,0,66,56h8a1.0262,1.0262,0,0,0,1-1.0526v-35.79a1.0765,1.0765,0,0,0-.2929-.7442Zm.2937,37.5866H67V21.6988l3.4142-3.5937h1.1724l1.4142,1.4886Z" style="fill-rule:evenodd"></path><path d="M74,5H68a1,1,0,0,0-.7071,1.7069l2.3581,2.3579a1,1,0,0,0-.3974.2406l-8.4859,8.6538-3.3692-3.4359a1.0093,1.0093,0,0,0-1.4478,0l-7.462,7.61L45.1194,18.697a1.0091,1.0091,0,0,0-1.4478,0L32.1161,30.481l-3.3692-3.4359a1.0074,1.0074,0,0,0-1.4462,0,1.0557,1.0557,0,0,0,0,1.4757l4.0919,4.1736a1.01,1.01,0,0,0,1.4478,0L44.3951,20.91l3.37,3.4359a1.0083,1.0083,0,0,0,1.447,0l7.462-7.61,3.37,3.4358a1.01,1.01,0,0,0,1.447,0l9.2094-9.3915a1.0231,1.0231,0,0,0,.24-.4266l2.3521,2.352A1.0018,1.0018,0,0,0,74,13a1.0188,1.0188,0,0,0,.3831-.0766A1.0021,1.0021,0,0,0,75,11.9993V6A.999.999,0,0,0,74,5ZM73,9.5853,70.4141,7H73Z" style="fill-rule:evenodd"></path></svg>