<svg width="1140" height="500" viewBox="0 0 1140 500" fill="none" xmlns="http://www.w3.org/2000/svg">
<path d="M4 7.99999C4 5.79086 5.79085 4 8 4H1132C1134.21 4 1136 5.79088 1136 8V492C1136 494.209 1134.21 496 1132 496H8.00001C5.79087 496 4 494.209 4 492V7.99999Z" fill="white"/>
<path d="M4 7.99999C4 5.79086 5.79085 4 8 4H1132C1134.21 4 1136 5.79088 1136 8V492C1136 494.209 1134.21 496 1132 496H8.00001C5.79087 496 4 494.209 4 492V7.99999Z" stroke="#515962" stroke-width="8"/>
<g clip-path="url(#clip0_321_349)">
<path d="M60 68C60 63.5817 63.5817 60 68 60H532C536.418 60 540 63.5817 540 68V432C540 436.418 536.418 440 532 440H68C63.5817 440 60 436.418 60 432V68Z" fill="#D5D8DC"/>
</g>
<path d="M68 56C61.3726 56 56 61.3726 56 68V432C56 438.627 61.3726 444 68 444H532C538.627 444 544 438.627 544 432V68C544 61.3726 538.627 56 532 56H68Z" stroke="#515962" stroke-width="8" stroke-linejoin="round"/>
<rect x="600" y="60" width="304" height="28" rx="8" fill="#818A96"/>
<rect x="600" y="108" width="480" height="16" rx="8" fill="#BABFC5"/>
<rect x="600" y="136" width="200" height="16" rx="8" fill="#BABFC5"/>
<g clip-path="url(#clip1_321_349)">
<path d="M600 192C600 187.582 603.582 184 608 184H816C820.418 184 824 187.582 824 192V212C824 216.418 820.418 220 816 220H608C603.582 220 600 216.418 600 212V192Z" fill="white"/>
</g>
<path d="M600 192C600 187.582 603.582 184 608 184H816C820.418 184 824 187.582 824 192V212C824 216.418 820.418 220 816 220H608C603.582 220 600 216.418 600 212V192Z" stroke="#9DA5AE" stroke-width="8" stroke-linejoin="round"/>
<g clip-path="url(#clip2_321_349)">
<path d="M856 192C856 187.582 859.582 184 864 184H1072C1076.42 184 1080 187.582 1080 192V212C1080 216.418 1076.42 220 1072 220H864C859.582 220 856 216.418 856 212V192Z" fill="white"/>
</g>
<path d="M856 192C856 187.582 859.582 184 864 184H1072C1076.42 184 1080 187.582 1080 192V212C1080 216.418 1076.42 220 1072 220H864C859.582 220 856 216.418 856 212V192Z" stroke="#9DA5AE" stroke-width="8" stroke-linejoin="round"/>
<g clip-path="url(#clip3_321_349)">
<path d="M600 260C600 255.582 603.582 252 608 252H1072C1076.42 252 1080 255.582 1080 260V364C1080 368.418 1076.42 372 1072 372H608C603.582 372 600 368.418 600 364V260Z" fill="white"/>
</g>
<path d="M600 260C600 255.582 603.582 252 608 252H1072C1076.42 252 1080 255.582 1080 260V364C1080 368.418 1076.42 372 1072 372H608C603.582 372 600 368.418 600 364V260Z" stroke="#9DA5AE" stroke-width="8" stroke-linejoin="round"/>
<path d="M602 412C602 408.686 604.686 406 608 406H732C735.314 406 738 408.686 738 412V432C738 435.314 735.314 438 732 438H608C604.686 438 602 435.314 602 432V412Z" fill="#515962"/>
<path d="M602 412C602 408.686 604.686 406 608 406H732C735.314 406 738 408.686 738 412V432C738 435.314 735.314 438 732 438H608C604.686 438 602 435.314 602 432V412Z" stroke="#515962" stroke-width="4" stroke-linejoin="round"/>
<defs>
<clipPath id="clip0_321_349">
<path d="M60 68C60 63.5817 63.5817 60 68 60H532C536.418 60 540 63.5817 540 68V432C540 436.418 536.418 440 532 440H68C63.5817 440 60 436.418 60 432V68Z" fill="white"/>
</clipPath>
<clipPath id="clip1_321_349">
<path d="M600 192C600 187.582 603.582 184 608 184H816C820.418 184 824 187.582 824 192V212C824 216.418 820.418 220 816 220H608C603.582 220 600 216.418 600 212V192Z" fill="white"/>
</clipPath>
<clipPath id="clip2_321_349">
<path d="M856 192C856 187.582 859.582 184 864 184H1072C1076.42 184 1080 187.582 1080 192V212C1080 216.418 1076.42 220 1072 220H864C859.582 220 856 216.418 856 212V192Z" fill="white"/>
</clipPath>
<clipPath id="clip3_321_349">
<path d="M600 260C600 255.582 603.582 252 608 252H1072C1076.42 252 1080 255.582 1080 260V364C1080 368.418 1076.42 372 1072 372H608C603.582 372 600 368.418 600 364V260Z" fill="white"/>
</clipPath>
</defs>
</svg>
