<svg width="1140" height="376" viewBox="0 0 1140 376" fill="none" xmlns="http://www.w3.org/2000/svg">
<path d="M4 8C4 5.79086 5.79086 4 8 4H1132C1134.21 4 1136 5.79088 1136 8V368C1136 370.209 1134.21 372 1132 372H8.00001C5.79087 372 4 370.209 4 368V8Z" fill="white"/>
<path d="M4 8C4 5.79086 5.79086 4 8 4H1132C1134.21 4 1136 5.79088 1136 8V368C1136 370.209 1134.21 372 1132 372H8.00001C5.79087 372 4 370.209 4 368V8Z" stroke="#515962" stroke-width="8"/>
<rect x="60" y="60" width="480" height="28" rx="8" fill="#818A96"/>
<rect x="60" y="108" width="200" height="28" rx="8" fill="#818A96"/>
<rect x="60" y="176" width="480" height="16" rx="8" fill="#BABFC5"/>
<rect x="60" y="204" width="480" height="16" rx="8" fill="#BABFC5"/>
<rect x="60" y="232" width="200" height="16" rx="8" fill="#BABFC5"/>
<g clip-path="url(#clip0_321_158)">
<path d="M600 68C600 63.5817 603.582 60 608 60H816C820.418 60 824 63.5817 824 68V88C824 92.4183 820.418 96 816 96H608C603.582 96 600 92.4183 600 88V68Z" fill="white"/>
</g>
<path d="M600 68C600 63.5817 603.582 60 608 60H816C820.418 60 824 63.5817 824 68V88C824 92.4183 820.418 96 816 96H608C603.582 96 600 92.4183 600 88V68Z" stroke="#9DA5AE" stroke-width="8" stroke-linejoin="round"/>
<g clip-path="url(#clip1_321_158)">
<path d="M856 68C856 63.5817 859.582 60 864 60H1072C1076.42 60 1080 63.5817 1080 68V88C1080 92.4183 1076.42 96 1072 96H864C859.582 96 856 92.4183 856 88V68Z" fill="white"/>
</g>
<path d="M856 68C856 63.5817 859.582 60 864 60H1072C1076.42 60 1080 63.5817 1080 68V88C1080 92.4183 1076.42 96 1072 96H864C859.582 96 856 92.4183 856 88V68Z" stroke="#9DA5AE" stroke-width="8" stroke-linejoin="round"/>
<g clip-path="url(#clip2_321_158)">
<path d="M600 136C600 131.582 603.582 128 608 128H1072C1076.42 128 1080 131.582 1080 136V240C1080 244.418 1076.42 248 1072 248H608C603.582 248 600 244.418 600 240V136Z" fill="white"/>
</g>
<path d="M600 136C600 131.582 603.582 128 608 128H1072C1076.42 128 1080 131.582 1080 136V240C1080 244.418 1076.42 248 1072 248H608C603.582 248 600 244.418 600 240V136Z" stroke="#9DA5AE" stroke-width="8" stroke-linejoin="round"/>
<path d="M602 288C602 284.686 604.686 282 608 282H732C735.314 282 738 284.686 738 288V308C738 311.314 735.314 314 732 314H608C604.686 314 602 311.314 602 308V288Z" fill="#515962"/>
<path d="M602 288C602 284.686 604.686 282 608 282H732C735.314 282 738 284.686 738 288V308C738 311.314 735.314 314 732 314H608C604.686 314 602 311.314 602 308V288Z" stroke="#515962" stroke-width="4" stroke-linejoin="round"/>
<defs>
<clipPath id="clip0_321_158">
<path d="M600 68C600 63.5817 603.582 60 608 60H816C820.418 60 824 63.5817 824 68V88C824 92.4183 820.418 96 816 96H608C603.582 96 600 92.4183 600 88V68Z" fill="white"/>
</clipPath>
<clipPath id="clip1_321_158">
<path d="M856 68C856 63.5817 859.582 60 864 60H1072C1076.42 60 1080 63.5817 1080 68V88C1080 92.4183 1076.42 96 1072 96H864C859.582 96 856 92.4183 856 88V68Z" fill="white"/>
</clipPath>
<clipPath id="clip2_321_158">
<path d="M600 136C600 131.582 603.582 128 608 128H1072C1076.42 128 1080 131.582 1080 136V240C1080 244.418 1076.42 248 1072 248H608C603.582 248 600 244.418 600 240V136Z" fill="white"/>
</clipPath>
</defs>
</svg>
