<svg width="120" height="66" viewBox="0 0 120 66" fill="none" xmlns="http://www.w3.org/2000/svg">
<path d="M0.421053 1.10528C0.421053 0.872746 0.609561 0.684236 0.842105 0.684236H119.158C119.39 0.684236 119.579 0.872744 119.579 1.10529V64.6842C119.579 64.9168 119.39 65.1053 119.158 65.1053H0.842099C0.609561 65.1053 0.421053 64.9168 0.421053 64.6842V1.10528Z" fill="white"/>
<path d="M0.421053 1.10528C0.421053 0.872746 0.609561 0.684236 0.842105 0.684236H119.158C119.39 0.684236 119.579 0.872744 119.579 1.10529V64.6842C119.579 64.9168 119.39 65.1053 119.158 65.1053H0.842099C0.609561 65.1053 0.421053 64.9168 0.421053 64.6842V1.10528Z" stroke="#515962" stroke-width="0.842105"/>
<rect width="107.368" height="52.6316" transform="translate(6.31592 6.5791)" fill="white"/>
<path d="M7.15802 6.15805C6.4604 6.15805 5.89487 6.72359 5.89487 7.42121V58.3686C5.89487 59.0662 6.4604 59.6317 7.15802 59.6317H30.8422C31.5399 59.6317 32.1054 59.0662 32.1054 58.3686V7.42121C32.1054 6.72358 31.5399 6.15805 30.8422 6.15805H7.15802Z" fill="#D5D8DC"/>
<path d="M7.15802 6.15805C6.4604 6.15805 5.89487 6.72359 5.89487 7.42121V58.3686C5.89487 59.0662 6.4604 59.6317 7.15802 59.6317H30.8422C31.5399 59.6317 32.1054 59.0662 32.1054 58.3686V7.42121C32.1054 6.72358 31.5399 6.15805 30.8422 6.15805H7.15802Z" stroke="#515962" stroke-width="0.842105"/>
<path d="M38.4212 6.15805C37.7236 6.15805 37.158 6.72359 37.158 7.42121V58.3686C37.158 59.0662 37.7236 59.6317 38.4212 59.6317H112.842C113.54 59.6317 114.105 59.0662 114.105 58.3686V7.42121C114.105 6.72359 113.54 6.15805 112.842 6.15805H38.4212Z" fill="#D5D8DC"/>
<path d="M38.4212 6.15805C37.7236 6.15805 37.158 6.72359 37.158 7.42121V58.3686C37.158 59.0662 37.7236 59.6317 38.4212 59.6317H112.842C113.54 59.6317 114.105 59.0662 114.105 58.3686V7.42121C114.105 6.72359 113.54 6.15805 112.842 6.15805H38.4212Z" stroke="#515962" stroke-width="0.842105"/>
</svg>
