<svg width="120" height="66" viewBox="0 0 120 66" fill="none" xmlns="http://www.w3.org/2000/svg">
<path d="M0.421053 0.842101C0.421053 0.609563 0.609561 0.421053 0.842105 0.421053H119.158C119.39 0.421053 119.579 0.60956 119.579 0.842105V64.4211C119.579 64.6536 119.39 64.8421 119.158 64.8421H0.842099C0.609561 64.8421 0.421053 64.6536 0.421053 64.4211V0.842101Z" fill="white"/>
<path d="M0.421053 0.842101C0.421053 0.609563 0.609561 0.421053 0.842105 0.421053H119.158C119.39 0.421053 119.579 0.60956 119.579 0.842105V64.4211C119.579 64.6536 119.39 64.8421 119.158 64.8421H0.842099C0.609561 64.8421 0.421053 64.6536 0.421053 64.4211V0.842101Z" stroke="#515962" stroke-width="0.842105"/>
<rect width="107.368" height="52.6316" transform="translate(6.31592 6.31592)" fill="white"/>
<path d="M7.15802 5.89487C6.4604 5.89487 5.89487 6.4604 5.89487 7.15802V58.1054C5.89487 58.803 6.4604 59.3685 7.15802 59.3685H39.2984C39.996 59.3685 40.5615 58.803 40.5615 58.1054V7.15802C40.5615 6.4604 39.996 5.89487 39.2984 5.89487H7.15802Z" fill="#D5D8DC"/>
<path d="M7.15802 5.89487C6.4604 5.89487 5.89487 6.4604 5.89487 7.15802V58.1054C5.89487 58.803 6.4604 59.3685 7.15802 59.3685H39.2984C39.996 59.3685 40.5615 58.803 40.5615 58.1054V7.15802C40.5615 6.4604 39.996 5.89487 39.2984 5.89487H7.15802Z" stroke="#515962" stroke-width="0.842105"/>
<path d="M46.8773 5.89487C46.1796 5.89487 45.6141 6.4604 45.6141 7.15802V58.1054C45.6141 58.803 46.1796 59.3685 46.8773 59.3685H112.841C113.539 59.3685 114.105 58.803 114.105 58.1054V7.15802C114.105 6.4604 113.539 5.89487 112.841 5.89487H46.8773Z" fill="#D5D8DC"/>
<path d="M46.8773 5.89487C46.1796 5.89487 45.6141 6.4604 45.6141 7.15802V58.1054C45.6141 58.803 46.1796 59.3685 46.8773 59.3685H112.841C113.539 59.3685 114.105 58.803 114.105 58.1054V7.15802C114.105 6.4604 113.539 5.89487 112.841 5.89487H46.8773Z" stroke="#515962" stroke-width="0.842105"/>
</svg>
