<svg width="120" height="66" viewBox="0 0 120 66" fill="none" xmlns="http://www.w3.org/2000/svg">
<path d="M0.421053 0.842101C0.421053 0.609563 0.609561 0.421053 0.842105 0.421053H119.158C119.39 0.421053 119.579 0.60956 119.579 0.842105V64.4211C119.579 64.6536 119.39 64.8421 119.158 64.8421H0.842099C0.609561 64.8421 0.421053 64.6536 0.421053 64.4211V0.842101Z" fill="white"/>
<path d="M0.421053 0.842101C0.421053 0.609563 0.609561 0.421053 0.842105 0.421053H119.158C119.39 0.421053 119.579 0.60956 119.579 0.842105V64.4211C119.579 64.6536 119.39 64.8421 119.158 64.8421H0.842099C0.609561 64.8421 0.421053 64.6536 0.421053 64.4211V0.842101Z" stroke="#515962" stroke-width="0.842105"/>
<rect width="107.368" height="52.6316" transform="translate(6.31592 6.31592)" fill="white"/>
<path d="M7.15802 5.89487C6.4604 5.89487 5.89487 6.4604 5.89487 7.15802V58.1054C5.89487 58.803 6.4604 59.3685 7.15802 59.3685H56.2107C56.9083 59.3685 57.4738 58.803 57.4738 58.1054V7.15802C57.4738 6.4604 56.9083 5.89487 56.2107 5.89487H7.15802Z" fill="#D5D8DC"/>
<path d="M7.15802 5.89487C6.4604 5.89487 5.89487 6.4604 5.89487 7.15802V58.1054C5.89487 58.803 6.4604 59.3685 7.15802 59.3685H56.2107C56.9083 59.3685 57.4738 58.803 57.4738 58.1054V7.15802C57.4738 6.4604 56.9083 5.89487 56.2107 5.89487H7.15802Z" stroke="#515962" stroke-width="0.842105"/>
<path d="M63.7899 5.89487C63.0922 5.89487 62.5267 6.4604 62.5267 7.15802V58.1054C62.5267 58.803 63.0922 59.3685 63.7899 59.3685H112.842C113.54 59.3685 114.106 58.803 114.106 58.1054V7.15802C114.106 6.4604 113.54 5.89487 112.842 5.89487H63.7899Z" fill="#D5D8DC"/>
<path d="M63.7899 5.89487C63.0922 5.89487 62.5267 6.4604 62.5267 7.15802V58.1054C62.5267 58.803 63.0922 59.3685 63.7899 59.3685H112.842C113.54 59.3685 114.106 58.803 114.106 58.1054V7.15802C114.106 6.4604 113.54 5.89487 112.842 5.89487H63.7899Z" stroke="#515962" stroke-width="0.842105"/>
</svg>
