<svg width="1140" height="440" viewBox="0 0 1140 440" fill="none" xmlns="http://www.w3.org/2000/svg">
<path d="M4 7.99999C4 5.79086 5.79086 4 8 4H1132C1134.21 4 1136 5.79088 1136 8V432C1136 434.209 1134.21 436 1132 436H8.00001C5.79087 436 4 434.209 4 432V7.99999Z" fill="white"/>
<path d="M4 7.99999C4 5.79086 5.79086 4 8 4H1132C1134.21 4 1136 5.79088 1136 8V432C1136 434.209 1134.21 436 1132 436H8.00001C5.79087 436 4 434.209 4 432V7.99999Z" stroke="#515962" stroke-width="8"/>
<rect x="170" y="60" width="200" height="28" rx="8" fill="#818A96"/>
<rect x="170" y="128" width="800" height="16" rx="8" fill="#BABFC5"/>
<rect x="170" y="156" width="800" height="16" rx="8" fill="#BABFC5"/>
<rect x="170" y="184" width="200" height="16" rx="8" fill="#BABFC5"/>
<rect x="170" y="240" width="120" height="8" rx="4" fill="#818A96"/>
<path d="M178 257.25C182.281 257.25 185.75 260.719 185.75 265C185.75 269.281 182.281 272.75 178 272.75C173.719 272.75 170.25 269.281 170.25 265C170.25 260.719 173.719 257.25 178 257.25Z" fill="#BABFC5"/>
<rect x="194" y="261" width="80" height="8" rx="4" fill="#BABFC5"/>
<path d="M178 283.25C182.281 283.25 185.75 286.719 185.75 291C185.75 295.281 182.281 298.75 178 298.75C173.719 298.75 170.25 295.281 170.25 291C170.25 286.719 173.719 283.25 178 283.25Z" fill="#BABFC5"/>
<rect x="194" y="287" width="80" height="8" rx="4" fill="#BABFC5"/>
<rect x="568" y="240" width="120" height="8" rx="4" fill="#818A96"/>
<rect x="568" y="256" width="80" height="8" rx="4" fill="#BABFC5"/>
<rect x="568" y="272" width="80" height="8" rx="4" fill="#BABFC5"/>
<rect x="170" y="340" width="120" height="8" rx="4" fill="#818A96"/>
<rect x="170" y="356" width="80" height="8" rx="4" fill="#BABFC5"/>
<rect x="170" y="372" width="80" height="8" rx="4" fill="#BABFC5"/>
<rect x="568" y="340" width="120" height="8" rx="4" fill="#818A96"/>
<path d="M576 357.25C580.281 357.25 583.75 360.719 583.75 365C583.75 369.281 580.281 372.75 576 372.75C571.719 372.75 568.25 369.281 568.25 365C568.25 360.719 571.719 357.25 576 357.25Z" fill="#BABFC5"/>
<path d="M600 357.25C604.281 357.25 607.75 360.719 607.75 365C607.75 369.281 604.281 372.75 600 372.75C595.719 372.75 592.25 369.281 592.25 365C592.25 360.719 595.719 357.25 600 357.25Z" fill="#BABFC5"/>
<path d="M624 357.25C628.281 357.25 631.75 360.719 631.75 365C631.75 369.281 628.281 372.75 624 372.75C619.719 372.75 616.25 369.281 616.25 365C616.25 360.719 619.719 357.25 624 357.25Z" fill="#BABFC5"/>
</svg>
