<svg width="1140" height="333" viewBox="0 0 1140 333" fill="none" xmlns="http://www.w3.org/2000/svg">
<path d="M8 4H1132C1134.21 4 1136 5.79087 1136 8V325C1136 327.209 1134.21 329 1132 329H8.00001C5.79086 329 4 327.209 4 325V8C4 5.79086 5.79086 4 8 4Z" fill="white"/>
<path d="M8 4H1132C1134.21 4 1136 5.79087 1136 8V325C1136 327.209 1134.21 329 1132 329H8.00001C5.79086 329 4 327.209 4 325V8C4 5.79086 5.79086 4 8 4Z" stroke="#515962" stroke-width="8"/>
<rect x="241.5" y="58.5" width="655" height="28" rx="8" fill="#818A96"/>
<rect x="241.5" y="126.5" width="655" height="16" rx="8" fill="#BABFC5"/>
<rect x="241.5" y="154.5" width="655" height="16" rx="8" fill="#BABFC5"/>
<rect x="469" y="182.5" width="200" height="16" rx="8" fill="#BABFC5"/>
<path d="M458 240.5H554C557.314 240.5 560 243.186 560 246.5V266.5C560 269.814 557.314 272.5 554 272.5H458C454.686 272.5 452 269.814 452 266.5V246.5C452 243.186 454.686 240.5 458 240.5Z" fill="#515962"/>
<path d="M458 240.5H554C557.314 240.5 560 243.186 560 246.5V266.5C560 269.814 557.314 272.5 554 272.5H458C454.686 272.5 452 269.814 452 266.5V246.5C452 243.186 454.686 240.5 458 240.5Z" stroke="#515962" stroke-width="4" stroke-linejoin="round"/>
<path d="M586 242.5H682C684.209 242.5 686 244.291 686 246.5V266.5C686 268.709 684.209 270.5 682 270.5H586C583.791 270.5 582 268.709 582 266.5V246.5C582 244.291 583.791 242.5 586 242.5Z" fill="#BABFC5"/>
<path d="M586 242.5H682C684.209 242.5 686 244.291 686 246.5V266.5C686 268.709 684.209 270.5 682 270.5H586C583.791 270.5 582 268.709 582 266.5V246.5C582 244.291 583.791 242.5 586 242.5Z" stroke="#515962" stroke-width="8" stroke-linejoin="round"/>
</svg>
