<svg width="1140" height="734" viewBox="0 0 1140 734" fill="none" xmlns="http://www.w3.org/2000/svg">
<path d="M8 4H1132C1134.21 4 1136 5.79087 1136 8V726C1136 728.209 1134.21 730 1132 730H8.00001C5.79086 730 4 728.209 4 726V8C4 5.79086 5.79086 4 8 4Z" fill="white"/>
<path d="M8 4H1132C1134.21 4 1136 5.79087 1136 8V726C1136 728.209 1134.21 730 1132 730H8.00001C5.79086 730 4 728.209 4 726V8C4 5.79086 5.79086 4 8 4Z" stroke="#515962" stroke-width="8"/>
<g clip-path="url(#clip0_178_3724)">
<path d="M60 57C60 52.5817 63.5817 49 68 49H1072C1076.42 49 1080 52.5817 1080 57V421C1080 425.418 1076.42 429 1072 429H68C63.5817 429 60 425.418 60 421V57Z" fill="#D5D8DC"/>
</g>
<path d="M1072 45H68C61.3726 45 56 50.3726 56 57V421C56 427.627 61.3726 433 68 433H1072C1078.63 433 1084 427.627 1084 421V57C1084 50.3726 1078.63 45 1072 45Z" stroke="#515962" stroke-width="8" stroke-linejoin="round"/>
<rect x="241.5" y="469" width="655" height="28" rx="8" fill="#818A96"/>
<rect x="241.5" y="537" width="655" height="16" rx="8" fill="#BABFC5"/>
<rect x="241.5" y="565" width="655" height="16" rx="8" fill="#BABFC5"/>
<rect x="469" y="593" width="200" height="16" rx="8" fill="#BABFC5"/>
<path d="M458 651H554C557.314 651 560 653.686 560 657V677C560 680.314 557.314 683 554 683H458C454.686 683 452 680.314 452 677V657C452 653.686 454.686 651 458 651Z" fill="#515962"/>
<path d="M458 651H554C557.314 651 560 653.686 560 657V677C560 680.314 557.314 683 554 683H458C454.686 683 452 680.314 452 677V657C452 653.686 454.686 651 458 651Z" stroke="#515962" stroke-width="4" stroke-linejoin="round"/>
<path d="M586 653H682C684.209 653 686 654.791 686 657V677C686 679.209 684.209 681 682 681H586C583.791 681 582 679.209 582 677V657C582 654.791 583.791 653 586 653Z" fill="#BABFC5"/>
<path d="M586 653H682C684.209 653 686 654.791 686 657V677C686 679.209 684.209 681 682 681H586C583.791 681 582 679.209 582 677V657C582 654.791 583.791 653 586 653Z" stroke="#515962" stroke-width="8" stroke-linejoin="round"/>
<defs>
<clipPath id="clip0_178_3724">
<path d="M60 57C60 52.5817 63.5817 49 68 49H1072C1076.42 49 1080 52.5817 1080 57V421C1080 425.418 1076.42 429 1072 429H68C63.5817 429 60 425.418 60 421V57Z" fill="white"/>
</clipPath>
</defs>
</svg>
