<svg width="1140" height="804" viewBox="0 0 1140 804" fill="none" xmlns="http://www.w3.org/2000/svg">
<path d="M8 4H1132C1134.21 4 1136 5.79087 1136 8V796C1136 798.209 1134.21 800 1132 800H8.00001C5.79086 800 4 798.209 4 796V7.99998C4 5.79085 5.79085 4 8 4Z" fill="white"/>
<path d="M8 4H1132C1134.21 4 1136 5.79087 1136 8V796C1136 798.209 1134.21 800 1132 800H8.00001C5.79086 800 4 798.209 4 796V7.99998C4 5.79085 5.79085 4 8 4Z" stroke="#515962" stroke-width="8"/>
<rect x="520" y="60" width="100" height="8" rx="4" fill="#BABFC5"/>
<rect x="242.5" y="108" width="655" height="28" rx="8" fill="#818A96"/>
<rect x="242.5" y="176" width="655" height="16" rx="8" fill="#BABFC5"/>
<rect x="242.5" y="204" width="655" height="16" rx="8" fill="#BABFC5"/>
<rect x="470" y="232" width="200" height="16" rx="8" fill="#BABFC5"/>
<path d="M522 290H618C621.314 290 624 292.686 624 296V316C624 319.314 621.314 322 618 322H522C518.686 322 516 319.314 516 316V296C516 292.686 518.686 290 522 290Z" fill="#515962"/>
<path d="M522 290H618C621.314 290 624 292.686 624 296V316C624 319.314 621.314 322 618 322H522C518.686 322 516 319.314 516 316V296C516 292.686 518.686 290 522 290Z" stroke="#515962" stroke-width="4" stroke-linejoin="round"/>
<g clip-path="url(#clip0_182_4094)">
<path d="M60 372C60 367.582 63.5817 364 68 364H1072C1076.42 364 1080 367.582 1080 372V736C1080 740.418 1076.42 744 1072 744H68C63.5817 744 60 740.418 60 736V372Z" fill="#D5D8DC"/>
</g>
<path d="M1072 360H68C61.3726 360 56 365.373 56 372V736C56 742.627 61.3726 748 68 748H1072C1078.63 748 1084 742.627 1084 736V372C1084 365.373 1078.63 360 1072 360Z" stroke="#515962" stroke-width="8" stroke-linejoin="round"/>
<defs>
<clipPath id="clip0_182_4094">
<path d="M60 372C60 367.582 63.5817 364 68 364H1072C1076.42 364 1080 367.582 1080 372V736C1080 740.418 1076.42 744 1072 744H68C63.5817 744 60 740.418 60 736V372Z" fill="white"/>
</clipPath>
</defs>
</svg>
