<svg width="1140" height="500" viewBox="0 0 1140 500" fill="none" xmlns="http://www.w3.org/2000/svg">
<path d="M4 7.99999C4 5.79086 5.79085 4 8 4H1132C1134.21 4 1136 5.79088 1136 8V492C1136 494.209 1134.21 496 1132 496H8.00001C5.79087 496 4 494.209 4 492V7.99999Z" fill="white"/>
<path d="M4 7.99999C4 5.79086 5.79085 4 8 4H1132C1134.21 4 1136 5.79088 1136 8V492C1136 494.209 1134.21 496 1132 496H8.00001C5.79087 496 4 494.209 4 492V7.99999Z" stroke="#515962" stroke-width="8"/>
<rect x="418" y="60" width="304" height="28" rx="8" fill="#818A96"/>
<rect x="312" y="108" width="516" height="16" rx="8" fill="#BABFC5"/>
<rect x="470" y="136" width="200" height="16" rx="8" fill="#BABFC5"/>
<g clip-path="url(#clip0_321_574)">
<path d="M250 192C250 187.582 253.582 184 258 184H546C550.418 184 554 187.582 554 192V212C554 216.418 550.418 220 546 220H258C253.582 220 250 216.418 250 212V192Z" fill="white"/>
</g>
<path d="M250 192C250 187.582 253.582 184 258 184H546C550.418 184 554 187.582 554 192V212C554 216.418 550.418 220 546 220H258C253.582 220 250 216.418 250 212V192Z" stroke="#9DA5AE" stroke-width="8" stroke-linejoin="round"/>
<g clip-path="url(#clip1_321_574)">
<path d="M586 192C586 187.582 589.582 184 594 184H882C886.418 184 890 187.582 890 192V212C890 216.418 886.418 220 882 220H594C589.582 220 586 216.418 586 212V192Z" fill="white"/>
</g>
<path d="M586 192C586 187.582 589.582 184 594 184H882C886.418 184 890 187.582 890 192V212C890 216.418 886.418 220 882 220H594C589.582 220 586 216.418 586 212V192Z" stroke="#9DA5AE" stroke-width="8" stroke-linejoin="round"/>
<g clip-path="url(#clip2_321_574)">
<path d="M250 260C250 255.582 253.582 252 258 252H882C886.418 252 890 255.582 890 260V364C890 368.418 886.418 372 882 372H258C253.582 372 250 368.418 250 364V260Z" fill="white"/>
</g>
<path d="M250 260C250 255.582 253.582 252 258 252H882C886.418 252 890 255.582 890 260V364C890 368.418 886.418 372 882 372H258C253.582 372 250 368.418 250 364V260Z" stroke="#9DA5AE" stroke-width="8" stroke-linejoin="round"/>
<path d="M502 412C502 408.686 504.686 406 508 406H632C635.314 406 638 408.686 638 412V432C638 435.314 635.314 438 632 438H508C504.686 438 502 435.314 502 432V412Z" fill="#515962"/>
<path d="M502 412C502 408.686 504.686 406 508 406H632C635.314 406 638 408.686 638 412V432C638 435.314 635.314 438 632 438H508C504.686 438 502 435.314 502 432V412Z" stroke="#515962" stroke-width="4" stroke-linejoin="round"/>
<defs>
<clipPath id="clip0_321_574">
<path d="M250 192C250 187.582 253.582 184 258 184H546C550.418 184 554 187.582 554 192V212C554 216.418 550.418 220 546 220H258C253.582 220 250 216.418 250 212V192Z" fill="white"/>
</clipPath>
<clipPath id="clip1_321_574">
<path d="M586 192C586 187.582 589.582 184 594 184H882C886.418 184 890 187.582 890 192V212C890 216.418 886.418 220 882 220H594C589.582 220 586 216.418 586 212V192Z" fill="white"/>
</clipPath>
<clipPath id="clip2_321_574">
<path d="M250 260C250 255.582 253.582 252 258 252H882C886.418 252 890 255.582 890 260V364C890 368.418 886.418 372 882 372H258C253.582 372 250 368.418 250 364V260Z" fill="white"/>
</clipPath>
</defs>
</svg>
